<?xml version="1.0" encoding="utf-8"?>
<!-- Generator: Adobe Illustrator 25.2.1, SVG Export Plug-In . SVG Version: 6.00 Build 0)  -->
<svg version="1.1" id="Layer_1" xmlns="http://www.w3.org/2000/svg" xmlns:xlink="http://www.w3.org/1999/xlink" x="0px" y="0px"
	 viewBox="0 0 575 101" style="enable-background:new 0 0 575 101;" xml:space="preserve">
<style type="text/css">
	.st0{fill:#173E5C;}
	.st1{fill:#FFFFFF;}
</style>
<rect x="-0.4" y="-0.4" class="st0" width="575" height="101"/>
<g>
	<g>
		<path class="st1" d="M122.8,24.6c0,4-3.2,7.2-7.2,7.2c-4,0-7.2-3.2-7.2-7.2c0-4,3.2-7.2,7.2-7.2C119.6,17.4,122.8,20.6,122.8,24.6
			 M158.5,74.8c0-0.4,0-2.5-0.9-5c-1.7-4.5-5-7.2-10.5-8.6c-7.2-1.9-12.2-9.2-15.2-14.4l0,0c-1.4-2.6-4-8.1-4.4-11.1
			c-0.5-3.3,1-5.6,1.4-8.7c0.1-1.1,0.1-2.1,0-3.1c-0.6-7-6.5-12.4-13.6-12.4c0,0,0,0,0,0c-0.1,0-0.2,0-0.3,0c-0.2,0-0.4,0-0.6,0
			c0,0,0,0-0.1,0c-7.1,0.5-12.7,6.4-12.7,13.6c0,1.3,0.2,2.5,0.5,3.7l0,0c0,0,0.5,1.5,0.7,3.3c0,0.2,0,0.4,0,0.6c0,0.5,0,0.9,0,1.4
			c0,0,0,0,0,0c-0.5,7.7-8.1,21-16.5,21.2c-0.3,0-0.8,0-0.8,0c-0.6,0-1.3-0.2-1.9-0.4c-5.4-1.8-11.2-7.8-13.4-14.1
			c-0.3-1-1.5-5.6,0.8-10c0,0,0,0,0,0c1.4-2.8,2.2-5.9,2.2-9.2c0-11.1-9-20.1-20.1-20.1s-20.1,9-20.1,20.1c0,1.4,0.2,2.9,0.4,4.2
			c0.8,6.7,1.9,13.1-0.1,19.6c-0.6,2.1-1.4,4.1-2.4,6.1c-3.5,6.5-7,11.7-10.2,13.3c-2.5,1.3-4.8,1.5-7.4,2.3
			c-0.8,0.2-1.5,0.5-2.3,0.9c-4.9,2.2-8.5,6.6-9.5,12c-0.5,2.3-0.4,4.6,0.2,6.8c1.7,7.2,8.2,12.6,16,12.6c9.1,0,16.4-7.3,16.4-16.4
			c0-0.6,0-1.1-0.1-1.7c-0.1-0.9-0.2-1.9-0.4-2.8c-1.1-5.1-2-9.4-0.3-14.5c1.3-3.9,3.9-7.9,6.4-11.2c5.1-6.7,11.4-12.4,19.4-12
			c4.6,0.2,7.2,3.4,8.4,4.8c2.3,2.7,4.4,6.3,5.5,9.7c0.6,1.9,0.6,3.8,0.5,5.7c0,0.2-0.1,1.1-0.1,2c0,0.4-0.1,0.9-0.1,1.3
			c0,0.5-0.1,0.9-0.1,1.2h0c-0.2,0.8-0.3,1.7-0.3,2.5c0,7,5.7,12.7,12.7,12.7c7,0,12.7-5.7,12.7-12.7c0-0.5-0.1-1.6-0.1-1.6
			c0,0,0-0.1,0-0.2c-0.4-3-0.2-5.7-0.2-6.1c0.8-7.3,4.5-14.7,10-19.4c6.3-5.4,14.5,1.7,18.1,7.5l0.1,0l-0.1,0
			c2.1,3.4,5.9,10.4,6.2,14.2c0.3,3-0.6,5.8-1.1,8.5c-0.3,1.2-0.5,2.4-0.5,3.6c0,6.9,5,12.6,11.6,13.7c4.5,0.6,7.4-0.9,8-1.1
			C155.2,85.1,158.5,80.4,158.5,74.8"/>
		<g>
			<path class="st1" d="M220.6,28.2c0-1,0.9-1.4,1.9-1.4c0.9,0,1.9,0.4,1.9,1.4V68c0,1-1,1.5-1.9,1.5c-1,0-1.9-0.5-1.9-1.5V28.2z"/>
			<path class="st1" d="M249.5,30.3c-5.4,0-8.4,2.8-8.4,8.9v18.1c0,6.1,3,8.9,8.6,8.9c7,0,7.6-4.4,7.9-7.2c0.1-0.9,0.7-1.5,1.9-1.5
				c1.3,0,1.9,0.5,1.9,2.4c0,5.3-4.5,9.9-12.2,9.9c-6.6,0-12.1-3.4-12.1-12.5V39.2c0-9.1,5.6-12.4,12.3-12.4c7.7,0,12,4.5,12,9.8
				c0,1.9-0.6,2.3-1.9,2.3c-1.3,0-1.9-0.6-1.9-1.5C257.6,34.9,256.5,30.3,249.5,30.3"/>
			<path class="st1" d="M276.5,30.3v16.4h7.9c5.2,0,8.8-2.3,8.8-8.2c0-5.8-3.6-8.1-8.8-8.1H276.5z M272.7,28.2
				c0-0.8,0.6-1.3,1.5-1.4h10.3c6.8,0,12.6,2.7,12.6,11.5c0,7.2-4,10.4-9.1,11.3l9,17.3c0.2,0.2,0.2,0.5,0.2,0.8c0,1-1.1,2-2.2,2
				c-0.9,0-1.6-1.1-2-2l-9-17.5h-7.4V68c0,1-1,1.5-1.9,1.5c-1,0-1.9-0.5-1.9-1.5V28.2z"/>
			<path class="st1" d="M327.9,39.2c0-6.1-3.1-8.9-8.3-8.9c-5.2,0-8.3,2.8-8.3,8.9v18.1c0,6.1,3.1,8.9,8.3,8.9
				c5.2,0,8.3-2.8,8.3-8.9V39.2z M307.5,57.3V39.2c0-9.1,5.3-12.4,12.2-12.4s12.2,3.4,12.2,12.4v18.1c0,9.1-5.3,12.5-12.2,12.5
				S307.5,66.4,307.5,57.3"/>
			<path class="st1" d="M348.4,30.3v18.5h8.4c5.2,0,8.3-2.9,8.3-8.9v-0.7c0-6.1-3.1-8.9-8.3-8.9H348.4z M344.6,28.2
				c0-0.8,0.6-1.3,1.6-1.4H357c6.8,0,12,3.3,12,12.4v0.6c0,9.1-5.3,12.4-12.2,12.4h-8.4V68c0,1-1,1.5-1.9,1.5c-1,0-1.9-0.5-1.9-1.5
				V28.2z"/>
			<path class="st1" d="M383.6,30.3v16.4h7.9c5.2,0,8.8-2.3,8.8-8.2c0-5.8-3.6-8.1-8.8-8.1H383.6z M379.8,28.2
				c0-0.8,0.6-1.3,1.5-1.4h10.3c6.8,0,12.6,2.7,12.6,11.5c0,7.2-4,10.4-9.1,11.3l9,17.3c0.2,0.2,0.2,0.5,0.2,0.8c0,1-1.1,2-2.2,2
				c-0.9,0-1.6-1.1-2-2L391,50h-7.4V68c0,1-1,1.5-1.9,1.5c-1,0-1.9-0.5-1.9-1.5V28.2z"/>
			<path class="st1" d="M435,39.2c0-6.1-3.1-8.9-8.3-8.9c-5.2,0-8.3,2.8-8.3,8.9v18.1c0,6.1,3.1,8.9,8.3,8.9c5.2,0,8.3-2.8,8.3-8.9
				V39.2z M414.6,57.3V39.2c0-9.1,5.3-12.4,12.2-12.4s12.2,3.4,12.2,12.4v18.1c0,9.1-5.3,12.5-12.2,12.5S414.6,66.4,414.6,57.3"/>
			<path class="st1" d="M451.7,28.2c0-1,0.9-1.5,1.8-1.5h20.7c1,0,1.5,0.9,1.5,1.7c0,1-0.5,1.9-1.5,1.9h-18.6v16.1h9.2
				c0.9,0,1.4,0.8,1.4,1.8c0,0.8-0.4,1.6-1.4,1.6h-9.2V68c0,1-1,1.5-1.9,1.5c-1,0-1.9-0.5-1.9-1.5V28.2z"/>
			<path class="st1" d="M484.9,28.2c0-1,0.9-1.4,1.9-1.4c0.9,0,1.9,0.4,1.9,1.4V68c0,1-1,1.5-1.9,1.5c-1,0-1.9-0.5-1.9-1.5V28.2z"/>
			<path class="st1" d="M503.8,69.5c-0.9,0-1.8-0.5-1.8-1.5V28.2c0-1,0.9-1.4,1.9-1.4c0.9,0,1.9,0.4,1.9,1.4v37.7h16.6
				c0.9,0,1.3,0.9,1.3,1.8c0,0.9-0.4,1.8-1.3,1.8H503.8z"/>
			<path class="st1" d="M205.4,26.8c-1.4,0-2.3,1.2-3.1,2.7l-10,19.4l-10-19.4c-0.8-1.5-1.7-2.7-3.1-2.7c-1,0-1.9,0.5-1.9,1.9
				l-0.1,30.6c0,0,0,5.4-2.5,9.6c0,0-0.6,1.1-0.6,2.4c0,2.8,2.3,5.1,5.1,5.1c2.8,0,5.1-2.3,5.1-5.1c0-1.4-0.6-2.4-0.6-2.4
				c-2.5-4.2-2.3-9.5-2.3-9.5l-0.3-24.4l9.6,18.5c0.5,0.9,1,1.2,1.5,1.2c0.5,0,1.1-0.4,1.6-1.2l9.7-18.3V68c0,1,1,1.5,1.9,1.5
				c1,0,1.9-0.5,1.9-1.5V28.6C207.3,27.2,206.5,26.8,205.4,26.8z M181.8,71.4c0,1.5-1.2,2.7-2.7,2.7c-1.5,0-2.7-1.2-2.7-2.7
				c0-1.5,1.2-2.7,2.7-2.7C180.6,68.7,181.8,69.9,181.8,71.4z"/>
			<path class="st1" d="M560.5,63.4c-1.2,0-2.1,0.5-2.1,0.5c-3.5,2.1-8.1,2-8.1,2l-12.7,0V49.7h9.2c1.1,0,1.5-0.8,1.5-1.6
				c0-0.9-0.5-1.8-1.5-1.8h-9.2V30.3h18.7c0.9,0,1.5-0.9,1.5-1.9c0-0.8-0.4-1.7-1.5-1.7h-20.8c-0.9,0-1.8,0.5-1.8,1.5V68
				c0,1,0.9,1.5,1.8,1.5c0,0,8.6,0,14.7,0c0,0,4.9,0,8.2,2.1c0,0,1,0.5,2.1,0.5c2.4,0,4.4-2,4.4-4.4
				C564.9,65.4,562.9,63.4,560.5,63.4z"/>
		</g>
	</g>
	<g>
		<path class="st1" d="M567.1,31.3c-0.1-0.1-0.1-0.2-0.2-0.3c0.2-0.1,0.3-0.2,0.5-0.3c0.2-0.2,0.3-0.5,0.3-0.8
			c0-0.4-0.1-0.7-0.4-0.9c-0.2-0.2-0.6-0.3-1-0.3h-1.3c-0.1,0-0.2,0.1-0.3,0.1c0,0-0.1,0.1-0.1,0.3v3.3c0,0.1,0.1,0.2,0.1,0.3
			c0,0,0.1,0.1,0.3,0.1c0.1,0,0.2,0,0.3-0.1c0,0,0.1-0.1,0.1-0.3v-1.2h0.5c0.1,0,0.3,0,0.3,0.1c0.1,0,0.2,0.1,0.2,0.2l0.7,1.1
			c0.1,0.1,0.2,0.2,0.3,0.2c0.1,0,0.2,0,0.2-0.1c0.1-0.1,0.1-0.1,0.1-0.2c0-0.1,0-0.1-0.1-0.2L567.1,31.3z M566.9,30
			c0,0.2-0.1,0.3-0.2,0.4c-0.1,0.1-0.3,0.1-0.6,0.1h-0.9v-1.1h0.9c0.3,0,0.4,0,0.6,0.1C566.9,29.7,566.9,29.8,566.9,30z"/>
		<path class="st1" d="M565.9,26.8c-2.2,0-4,1.8-4,4c0,2.2,1.8,4,4,4c2.2,0,4-1.8,4-4C570,28.6,568.1,26.8,565.9,26.8z M565.9,34.2
			c-1.9,0-3.4-1.5-3.4-3.4c0-1.9,1.5-3.4,3.4-3.4c1.9,0,3.4,1.5,3.4,3.4C569.3,32.7,567.8,34.2,565.9,34.2z"/>
	</g>
</g>
</svg>
