<svg xmlns="http://www.w3.org/2000/svg" viewBox="0 0 16 48">
  <title>Octicons (16px subset)</title>
  <desc>Octicons v11.2.0 by GitHub - https://primer.style/octicons/ - License: MIT</desc>
  <metadata
    xmlns:dc="http://purl.org/dc/elements/1.1/"
    xmlns:cc="http://creativecommons.org/ns#"
    xmlns:rdf="http://www.w3.org/1999/02/22-rdf-syntax-ns#">
    <rdf:RDF>
      <cc:Work rdf:about="">
        <dc:title>@primer/octicons</dc:title>
        <dc:identifier>11.2.0</dc:identifier>
        <dc:description>A scalable set of icons handcrafted with &lt;3 by GitHub</dc:description>
        <dc:format>image/svg+xml</dc:format>
        <dc:creator>
          <cc:Agent>
            <dc:title>GitHub</dc:title>
          </cc:Agent>
        </dc:creator>
        <dc:rights>
          <cc:Agent>
            <dc:title>Copyright (c) 2020 GitHub Inc.</dc:title>
          </cc:Agent>
        </dc:rights>
        <cc:license rdf:resource="https://opensource.org/licenses/MIT" />
        <dc:relation>https://primer.style/octicons/</dc:relation>
      </cc:Work>
    </rdf:RDF>
  </metadata>
  <symbol id="icon-clippy" viewBox="0 0 16 16">
    <path fill-rule="evenodd" d="M5.75 1a.75.75 0 00-.75.75v3c0 .414.336.75.75.75h4.5a.75.75 0 00.75-.75v-3a.75.75 0 00-.75-.75h-4.5zm.75 3V2.5h3V4h-3zm-2.874-.467a.75.75 0 00-.752-1.298A1.75 1.75 0 002 3.75v9.5c0 .966.784 1.75 1.75 1.75h8.5A1.75 1.75 0 0014 13.25v-9.5a1.75 1.75 0 00-.874-1.515.75.75 0 10-.752 1.298.25.25 0 01.126.217v9.5a.25.25 0 01-.25.25h-8.5a.25.25 0 01-.25-.25v-9.5a.25.25 0 01.126-.217z"/>
  </symbol>
  <symbol id="icon-moon" viewBox="0 0 16 16">
    <path fill-rule="evenodd" d="M9.598 1.591a.75.75 0 01.785-.175 7 7 0 11-8.967 8.967.75.75 0 01.961-.96 5.5 5.5 0 007.046-7.046.75.75 0 01.175-.786zm1.616 1.945a7 7 0 01-7.678 7.678 5.5 5.5 0 107.678-7.678z"/>
  </symbol>
  <symbol id="icon-sun" viewBox="0 0 16 16">
    <path fill-rule="evenodd" d="M8 10.5a2.5 2.5 0 100-5 2.5 2.5 0 000 5zM8 12a4 4 0 100-8 4 4 0 000 8zM8 0a.75.75 0 01.75.75v1.5a.75.75 0 01-1.5 0V.75A.75.75 0 018 0zm0 13a.75.75 0 01.75.75v1.5a.75.75 0 01-1.5 0v-1.5A.75.75 0 018 13zM2.343 2.343a.75.75 0 011.061 0l1.06 1.061a.75.75 0 01-1.06 1.06l-1.06-1.06a.75.75 0 010-1.06zm9.193 9.193a.75.75 0 011.06 0l1.061 1.06a.75.75 0 01-1.06 1.061l-1.061-1.06a.75.75 0 010-1.061zM16 8a.75.75 0 01-.75.75h-1.5a.75.75 0 010-1.5h1.5A.75.75 0 0116 8zM3 8a.75.75 0 01-.75.75H.75a.75.75 0 010-1.5h1.5A.75.75 0 013 8zm10.657-5.657a.75.75 0 010 1.061l-1.061 1.06a.75.75 0 11-1.06-1.06l1.06-1.06a.75.75 0 011.06 0zm-9.193 9.193a.75.75 0 010 1.06l-1.06 1.061a.75.75 0 11-1.061-1.06l1.06-1.061a.75.75 0 011.061 0z"/>
  </symbol>

  <use href="#icon-clippy" x="0" y="0" width="16" height="16" />
  <use href="#icon-moon" x="0" y="16" width="16" height="16" />
  <use href="#icon-sun" x="0" y="32" width="16" height="16" />

  <view id="view-clippy" viewBox="0 0 16 16" />
  <view id="view-moon" viewBox="0 16 16 16" />
  <view id="view-sun" viewBox="0 32 16 16" />
</svg>
